<svg xmlns="http://www.w3.org/2000/svg" viewBox="0 0 59 59" width="59" height="59">
	<style>
		tspan { white-space:pre }
		.shp0 { fill: #ffffff } 
	</style>
	<g id="demo">
		<path id="arrow right" class="shp0" d="M29.6 1C13.69 1 0.8 13.89 0.8 29.8C0.8 45.71 13.69 58.6 29.6 58.6C45.5 58.6 58.4 45.71 58.4 29.8C58.4 13.89 45.5 1 29.6 1ZM29.6 53.32C16.61 53.32 6.08 42.79 6.08 29.8C6.08 16.81 16.61 6.28 29.6 6.28C42.59 6.28 53.12 16.81 53.12 29.8C53.12 42.79 42.59 53.32 29.6 53.32ZM22.4 46.6L41.6 29.8L22.4 13L22.4 46.6Z" />
	</g>
</svg>