<svg xmlns="http://www.w3.org/2000/svg" viewBox="0 0 30 29" width="30" height="29">
	<style>
		tspan { white-space:pre }
		.shp0 { fill: #243b6d } 
	</style>
	<g id="demo">
		<g id="search">
			<path id="Rectangle 2" fill-rule="evenodd" class="shp0" d="M3.66 3.27C7.73 -0.82 14.34 -0.82 18.42 3.27C21.59 6.44 22.29 11.16 20.54 15.02L29.4 23.91L24.33 29L15.5 20.14C11.62 21.98 6.86 21.29 3.66 18.08C-0.42 13.99 -0.42 7.35 3.66 3.27ZM6.19 15.81C8.87 18.49 13.21 18.49 15.88 15.81C18.56 13.12 18.56 8.77 15.88 6.09C13.21 3.4 8.87 3.4 6.19 6.09C3.52 8.77 3.52 13.12 6.19 15.81Z" />
		</g>
	</g>
</svg>