<svg xmlns="http://www.w3.org/2000/svg" viewBox="0 0 216 120" width="216" height="120">
	<style>
		tspan { white-space:pre }
		.shp0 { fill: #ffffff } 
	</style>
	<g id="demo">
		<g id="wednesday">
			<path id="cloudy" class="shp0" d="M114.17 4.49L107.81 7.13L112.2 17.73C114.26 16.74 116.39 15.87 118.57 15.1L114.17 4.49L114.17 4.49ZM88.79 19.84L83.93 24.7L92.05 32.83C93.59 31.12 95.21 29.5 96.92 27.96L88.79 19.84L88.79 19.84ZM71.22 43.72L68.58 50.08L79.19 54.48C79.96 52.3 80.83 50.18 81.81 48.11L71.22 43.72L71.22 43.72ZM191.31 19.84L183.19 27.96C184.89 29.5 186.52 31.12 188.05 32.83L196.18 24.7L191.31 19.84L191.31 19.84ZM165.93 4.49L161.54 15.1C163.71 15.87 165.84 16.74 167.9 17.73L172.29 7.13L165.93 4.49L165.93 4.49ZM143.49 0.03L136.61 0.03L136.61 11.51C137.75 11.45 138.9 11.42 140.05 11.42C141.21 11.42 142.35 11.45 143.49 11.51L143.49 0.03L143.49 0.03ZM208.89 43.73L198.29 48.11C199.28 50.18 200.15 52.3 200.91 54.48L211.52 50.08L208.89 43.73L208.89 43.73ZM215.98 72.52L204.5 72.52C204.56 73.66 204.59 74.81 204.59 75.96C204.59 77.12 204.56 78.26 204.5 79.4L215.98 79.4L215.98 72.52L215.98 72.52ZM140.05 19.01C114.43 19.01 92.76 35.94 85.61 59.22C87.94 58.4 90.36 57.75 92.84 57.28C100.3 38.49 118.64 25.18 140.05 25.18C168.06 25.18 190.84 47.96 190.84 75.96C190.84 77.64 190.75 79.3 190.59 80.93C192.57 82.52 194.4 84.28 196.06 86.2C196.67 82.87 197 79.46 197 75.96C197 44.51 171.5 19.01 140.05 19.01L140.05 19.01ZM102.36 67.15C116.61 67.15 130.08 74.09 138.39 85.71L141.66 90.3L146.52 87.44C151.96 84.25 158.18 82.56 164.51 82.56C182.53 82.56 197.47 96.01 199.8 113.41L7.44 113.41C9.17 107.6 12.45 102.33 16.99 98.14C23.28 92.36 31.44 89.17 39.98 89.17C45.35 89.17 50.49 90.4 55.27 92.81L60.6 95.5L63.46 90.26C71.24 76.01 86.14 67.15 102.36 67.15M102.36 60.99C83.24 60.99 66.6 71.63 58.05 87.31C52.62 84.57 46.49 83.01 39.98 83.01C19.03 83.01 1.83 99.08 0.02 119.57L206.24 119.57C206.25 119.1 206.27 118.63 206.27 118.16C206.27 95.09 187.58 76.4 164.51 76.4C156.81 76.4 149.6 78.49 143.4 82.13C134.25 69.34 119.28 60.99 102.36 60.99L102.36 60.99Z" />
		</g>
	</g>
</svg>