<svg xmlns="http://www.w3.org/2000/svg" viewBox="0 0 218 131" width="218" height="131">
	<style>
		tspan { white-space:pre }
		.shp0 { fill: #ffffff } 
	</style>
	<g id="demo">
		<g id="tuesday">
			<path id="rain" class="shp0" d="M216.87 65.81L1 65.81L1.3 62.41C2.26 51.53 7.23 41.44 15.3 34.02C23.41 26.55 33.96 22.43 45 22.43C50.94 22.43 56.67 23.59 62.08 25.89C71.95 9.89 89.42 0.07 108.34 0.07C124.91 0.07 140.61 7.7 150.89 20.62C157.25 17.4 164.3 15.71 171.46 15.71C196.58 15.71 217 36.14 217 61.25C217 61.66 216.99 62.07 216.98 62.48L216.87 65.81ZM7.98 59.56L210.71 59.56C209.82 38.68 192.56 21.97 171.46 21.97C164.48 21.97 157.62 23.83 151.61 27.36L149.14 28.81L147.48 26.48C138.45 13.86 123.82 6.33 108.34 6.33C90.73 6.33 74.54 15.94 66.09 31.42L64.64 34.08L61.94 32.72C56.64 30.04 50.95 28.69 45 28.69C26.52 28.69 11.17 41.74 7.98 59.56ZM33.99 103.03C29.07 103.03 25.07 99.03 25.07 94.12C25.07 90.45 29.43 82.8 31.3 79.69L33.99 75.22L36.67 79.69C38.54 82.8 42.9 90.45 42.9 94.12C42.9 99.03 38.9 103.03 33.99 103.03ZM33.99 87.72C32.45 90.69 31.37 93.25 31.33 94.13C31.33 95.58 32.52 96.77 33.99 96.77C35.45 96.77 36.64 95.58 36.64 94.12C36.6 93.25 35.52 90.69 33.99 87.72ZM125.24 114.05C118.44 114.05 112.9 108.51 112.9 101.71C112.9 96.04 120.94 82.37 122.56 79.69L125.24 75.22L127.92 79.69C129.53 82.37 137.57 96.04 137.57 101.71C137.57 108.51 132.04 114.05 125.24 114.05ZM125.24 87.58C121.98 93.53 119.16 99.66 119.16 101.71C119.16 105.06 121.89 107.79 125.24 107.79C128.59 107.79 131.32 105.06 131.32 101.71C131.32 99.66 128.5 93.52 125.24 87.58ZM180.32 120.66C173.52 120.66 167.98 115.12 167.98 108.32C167.98 102.65 176.02 88.98 177.64 86.3L180.32 81.83L183 86.3C184.61 88.98 192.65 102.65 192.65 108.32C192.65 115.12 187.12 120.66 180.32 120.66ZM180.32 94.19C177.06 100.14 174.24 106.27 174.24 108.32C174.24 111.67 176.97 114.4 180.32 114.4C183.67 114.4 186.4 111.67 186.4 108.32C186.4 106.27 183.58 100.13 180.32 94.19ZM82.28 130.33C76.69 130.33 72.14 125.79 72.14 120.2C72.14 115.8 77.85 105.97 79.59 103.06L82.28 98.59L84.96 103.06C86.71 105.97 92.41 115.8 92.41 120.2C92.41 125.79 87.86 130.33 82.28 130.33ZM82.28 111.03C80.13 115.05 78.4 118.92 78.4 120.2C78.4 122.34 80.14 124.07 82.28 124.07C84.41 124.07 86.15 122.34 86.15 120.2C86.15 118.91 84.42 115.05 82.28 111.03Z" />
		</g>
	</g>
</svg>