<svg xmlns="http://www.w3.org/2000/svg" viewBox="0 0 168 169" width="168" height="169">
	<style>
		tspan { white-space:pre }
		.shp0 { fill: #ffffff } 
	</style>
	<g id="demo">
		<g id="monday">
			<path id="sunny" class="shp0" d="M55.37 5.54L48.34 8.46L53.2 20.18C55.48 19.09 57.83 18.12 60.23 17.27L55.37 5.54L55.37 5.54ZM27.3 22.52L21.92 27.9L30.9 36.89C32.6 35 34.4 33.2 36.29 31.5L27.3 22.52L27.3 22.52ZM12.71 80.79L0.01 80.79L0.01 88.41L12.71 88.41C12.64 87.15 12.61 85.88 12.61 84.6C12.61 83.32 12.64 82.05 12.71 80.79L12.71 80.79ZM7.86 48.94L4.94 55.97L16.67 60.83C17.52 58.43 18.49 56.08 19.58 53.8L7.86 48.94L7.86 48.94ZM140.7 22.52L131.71 31.5C133.6 33.2 135.4 35 137.1 36.89L146.08 27.9L140.7 22.52L140.7 22.52ZM112.63 5.54L107.77 17.27C110.17 18.12 112.52 19.09 114.8 20.18L119.66 8.46L112.63 5.54L112.63 5.54ZM87.81 0.61L80.19 0.61L80.19 13.31C81.45 13.24 82.72 13.21 84 13.21C85.28 13.21 86.55 13.24 87.81 13.31L87.81 0.61L87.81 0.61ZM160.14 48.94L148.42 53.8C149.51 56.08 150.48 58.43 151.33 60.83L163.06 55.97L160.14 48.94L160.14 48.94ZM16.67 108.37L4.94 113.22L7.86 120.26L19.58 115.4C18.49 113.12 17.52 110.77 16.67 108.37L16.67 108.37ZM151.33 108.37C150.48 110.77 149.51 113.12 148.42 115.4L160.14 120.26L163.06 113.23L151.33 108.37L151.33 108.37ZM137.1 132.31C135.4 134.2 133.6 136 131.71 137.7L140.7 146.68L146.08 141.3L137.1 132.31L137.1 132.31ZM167.99 80.79L155.29 80.79C155.36 82.05 155.39 83.32 155.39 84.6C155.39 85.88 155.36 87.15 155.29 88.41L167.99 88.41L167.99 80.79L167.99 80.79ZM114.8 149.02C112.52 150.11 110.17 151.08 107.77 151.93L112.63 163.66L119.66 160.74L114.8 149.02L114.8 149.02ZM30.9 132.31L21.92 141.3L27.3 146.68L36.29 137.7C34.4 136 32.6 134.2 30.9 132.31L30.9 132.31ZM53.2 149.02L48.34 160.74L55.37 163.66L60.23 151.93C57.83 151.08 55.48 150.11 53.2 149.02L53.2 149.02ZM87.81 155.89C86.55 155.96 85.28 155.99 84 155.99C82.72 155.99 81.45 155.96 80.19 155.89L80.19 168.59L87.81 168.59L87.81 155.89L87.81 155.89ZM84 28.42C114.98 28.42 140.18 53.62 140.18 84.6C140.18 115.58 114.98 140.78 84 140.78C53.02 140.78 27.82 115.58 27.82 84.6C27.82 53.62 53.02 28.42 84 28.42M84 21.61C49.21 21.61 21.01 49.81 21.01 84.6C21.01 119.39 49.21 147.59 84 147.59C118.79 147.59 146.99 119.39 146.99 84.6C146.99 49.81 118.79 21.61 84 21.61L84 21.61Z" />
		</g>
	</g>
</svg>